<svg width="653" height="415" viewBox="0 0 653 415" fill="none" xmlns="http://www.w3.org/2000/svg">
<path d="M105.91 98.6318C105.792 109.14 104.158 120.245 100.287 130.014C96.4137 139.783 90.3387 148.217 81.3567 153.378C72.5652 158.432 62.4058 159.52 52.1728 160.473C41.9398 161.425 31.6362 162.244 22.5402 166.755C-6.25825 181.037 -6.37972 226.919 16.0213 250.201C27.2218 261.841 41.5888 268.902 56.8888 272.82C120.265 283.548 196.765 271.356 238.765 216.492C264.265 186.012 267.265 144.864 294.265 114.384C315.265 93.0478 346.765 86.9518 375.652 91.792C384.931 93.1271 394.123 95.375 403.017 98.4931C429.694 107.847 453.678 125.038 469.077 148.918C476.776 160.857 482.031 174.49 484.575 188.59C496.764 230.209 468.264 260.689 453.264 295.741C444.264 320.125 454.764 344.509 472.764 362.797C520.764 410.041 589.764 417.661 652.078 413.691C652.126 413.688 652.176 413.685 652.224 413.682V0H78.4332C95.0262 30.4739 106.299 64.0354 105.91 98.6318Z" fill="url(#paint0_linear_14_92)"/>
<g opacity="0.1">
<path d="M29.0998 255.819C13.6543 235.723 25.8853 194.334 56.5273 179.783C66.1318 175.222 75.9672 173.789 85.7652 172.244C95.5602 170.7 105.313 169.044 114.636 164.069C124.12 159.008 131.538 151.391 137.131 142.86C142.677 134.4 146.383 125.066 148.555 116.417C155.391 89.1799 140.391 23.6631 131.437 0H78.4347C95.0262 30.4739 106.3 64.0354 105.91 98.6318C105.792 109.14 104.158 120.245 100.287 130.014C96.4137 139.783 90.3387 148.217 81.3567 153.378C72.5652 158.432 62.4058 159.52 52.1728 160.473C41.9398 161.425 31.6362 162.244 22.5402 166.755C-6.25825 181.037 -6.37972 226.919 16.0213 250.201C26.0053 260.578 38.5078 267.307 51.9418 271.423C42.6943 268.189 34.7548 263.175 29.0998 255.819Z" fill="white"/>
<path d="M651.322 1.05766L652.225 26.1564V0H452.65L651.322 1.05766Z" fill="white"/>
<path d="M75.8323 275.285C125.946 279.915 180.991 269.975 219.676 236.651C175.735 266.156 121.704 277.206 75.8323 275.285Z" fill="white"/>
<path d="M472.789 334.497C462.27 324.016 454.755 311.298 452.662 297.494C444.784 321.29 455.199 344.945 472.767 362.796C520.767 410.04 589.767 417.66 652.081 413.69C652.129 413.687 652.179 413.684 652.227 413.681V377.321C587.713 384.315 518.851 378.761 472.789 334.497Z" fill="white"/>
</g>
<path opacity="0.15" d="M207.738 57.6179C220.788 51.1058 233.415 43.6977 245.266 35.1526C259.168 25.1292 271.992 13.5285 283.344 0H237.363H78.4333C94.4938 29.4955 105.537 61.8896 105.877 95.3094C140.317 85.3425 174.36 73.4202 207.738 57.6179Z" fill="url(#paint1_linear_14_92)"/>
<defs>
<linearGradient id="paint0_linear_14_92" x1="59.6563" y1="424.779" x2="595.313" y2="54.7998" gradientUnits="userSpaceOnUse">
<stop stop-color="#353A46" stop-opacity="0.592157"/>
<stop offset="1" stop-color="#506288"/>
</linearGradient>
<linearGradient id="paint1_linear_14_92" x1="202.574" y1="67.7034" x2="160.518" y2="-34.8796" gradientUnits="userSpaceOnUse">
<stop/>
<stop offset="1" stop-color="#010203" stop-opacity="0"/>
</linearGradient>
</defs>
</svg>
